<?xml version="1.0" encoding="UTF-8" standalone="no"?>
<svg
   xmlns:dc="http://purl.org/dc/elements/1.1/"
   xmlns:cc="http://creativecommons.org/ns#"
   xmlns:rdf="http://www.w3.org/1999/02/22-rdf-syntax-ns#"
   xmlns:svg="http://www.w3.org/2000/svg"
   xmlns="http://www.w3.org/2000/svg"
   id="svg8"
   version="1.1"
   viewBox="0 0 297 210"
   height="210mm"
   width="297mm">
  <defs
     id="defs2" />
  <metadata
     id="metadata5">
    <rdf:RDF>
      <cc:Work
         rdf:about="">
        <dc:format>image/svg+xml</dc:format>
        <dc:type
           rdf:resource="http://purl.org/dc/dcmitype/StillImage" />
        <dc:title></dc:title>
      </cc:Work>
    </rdf:RDF>
  </metadata>
  <g
     transform="translate(0,-87)"
     id="layer1">
    <g
       style="stroke-width:0.5"
       transform="matrix(2,0,0,2,821.34877,-18.838427)"
       id="g848">
      <g
         aria-label="10"
         style="font-style:normal;font-variant:normal;font-weight:normal;font-stretch:normal;font-size:101.59999847px;line-height:1.25;font-family:'DejaVu Serif';-inkscape-font-specification:'DejaVu Serif';letter-spacing:0px;word-spacing:0px;opacity:0.331;fill:#000000;fill-opacity:1;stroke:none;stroke-width:0.13229166"
         id="text829">
        <path
           d="m -392.75093,145.40257 v -5.25859 h 12.89844 V 78.529136 l -14.93242,9.673828 v -6.498828 l 18.05781,-11.707812 h 6.84609 v 70.147656 h 12.89844 v 5.25859 z"
           style="stroke-width:0.13229166"
           id="path831" />
        <path
           d="m -310.20093,141.92992 q 7.59023,0 11.36054,-8.33438 3.77032,-8.33437 3.77032,-25.15195 0,-16.867188 -3.77032,-25.201563 -3.77031,-8.334375 -11.36054,-8.334375 -7.59024,0 -11.36055,8.334375 -3.77031,8.334375 -3.77031,25.201563 0,16.81758 3.77031,25.15195 3.77031,8.33438 11.36055,8.33438 z m 0,4.91132 q -12.05508,0 -18.85157,-10.12031 -6.74687,-10.12031 -6.74687,-28.27734 0,-18.206642 6.74687,-28.326954 6.79649,-10.120312 18.85157,-10.120312 12.10468,0 18.85156,10.120312 6.74687,10.120312 6.74687,28.326954 0,18.15703 -6.74687,28.27734 -6.74688,10.12031 -18.85156,10.12031 z"
           style="stroke-width:0.13229166"
           id="path833" />
      </g>
      <g
         id="g840"
         style="font-style:normal;font-variant:normal;font-weight:normal;font-stretch:normal;font-size:101.59999847px;line-height:1.25;font-family:'DejaVu Serif';-inkscape-font-specification:'DejaVu Serif';letter-spacing:0px;word-spacing:0px;fill:#000000;fill-opacity:1;stroke:none;stroke-width:0.13229166"
         aria-label="10"
         transform="translate(5.8208336,-5.2916669)">
        <path
           id="path836"
           style="stroke-width:0.13229166"
           d="m -392.75093,145.40257 v -5.25859 h 12.89844 V 78.529136 l -14.93242,9.673828 v -6.498828 l 18.05781,-11.707812 h 6.84609 v 70.147656 h 12.89844 v 5.25859 z" />
        <path
           id="path838"
           style="stroke-width:0.13229166"
           d="m -310.20093,141.92992 q 7.59023,0 11.36054,-8.33438 3.77032,-8.33437 3.77032,-25.15195 0,-16.867188 -3.77032,-25.201563 -3.77031,-8.334375 -11.36054,-8.334375 -7.59024,0 -11.36055,8.334375 -3.77031,8.334375 -3.77031,25.201563 0,16.81758 3.77031,25.15195 3.77031,8.33438 11.36055,8.33438 z m 0,4.91132 q -12.05508,0 -18.85157,-10.12031 -6.74687,-10.12031 -6.74687,-28.27734 0,-18.206642 6.74687,-28.326954 6.79649,-10.120312 18.85157,-10.120312 12.10468,0 18.85156,10.120312 6.74687,10.120312 6.74687,28.326954 0,18.15703 -6.74687,28.27734 -6.74688,10.12031 -18.85156,10.12031 z" />
      </g>
    </g>
  </g>
</svg>
